<svg viewBox="0 0 600 187.7" xmlns="http://www.w3.org/2000/svg" width="2500" height="782"><g fill="#435f74"><g fill-rule="evenodd"><path d="M275 .9h-13.8v.4c-.3 10-.2 20 0 29.9V113c-1.6 15.8-10.5 29-29.1 29.6-8.39-.14-14.18-1.6-18.08-2.69-2.2-.87-4.4-2.05-7.22-3.81-4.3 7.2-8.5 14.5-12.8 21.7.08 0 .16.01.23.02-.05.06-.09.12-.13.18 34 29.7 78.5 11 91.2-20.9 8.1-20.3 5.5-110.7 3.9-136.7L275 .9zM0 167.8v3.5l32.7 1L45.5 144l80 .3 12.2 28.9 32.1-2.2L84.2 4.6zm61.3-52.5L82.9 64l26.7 51.3zM513.2 0c-47.9 0-86.7 38.8-86.7 86.7s38.8 86.7 86.7 86.7S600 134.6 600 86.7 561.1 0 513.2 0zm0 143.8c-31.5 0-57.1-25.6-57.1-57.1s25.6-57.1 57.1-57.1 57.1 25.6 57.1 57.1-25.5 57.1-57.1 57.1z"/></g><path d="M349.8.4h26.9v173.1h-26.9z"/></g></svg>