<svg xmlns="http://www.w3.org/2000/svg" width="100" height="100"><g fill="none"><path fill="#4C12A1" d="M100 50c0 27.614-22.386 50-50 50S0 77.614 0 50 22.386 0 50 0a49.999 49.999 0 0 1 50 50"/><path fill="#FFF" d="M86.478 58.432c3.316 0 6.35-2.092 6.35-5.373 0-2.932-1.577-4.188-4.41-4.992l-1.45-.417c-1.411-.388-2.35-.772-2.35-1.644 0-.673.58-1.287 1.765-1.287a2.116 2.116 0 0 1 2.06 1.256L91.5 44.46c-1.097-2.116-3.316-2.896-5.217-2.896-3.122 0-5.373 1.933-5.373 4.586 0 2.653 1.93 3.733 4.022 4.346l1.996.579c1.64.483 2.117.967 2.117 1.997 0 1.22-1.192 1.898-2.512 1.898-1.41 0-2.822-.773-2.822-2.223-.004-.16.008-.321.035-.48H80.01a3.055 3.055 0 0 0-.063.674c0 3.196 2.702 5.49 6.53 5.49zM71.22 65.417a7.148 7.148 0 0 0 5.891-2.96 7.285 7.285 0 0 0 1.253-4.315V41.953H74.66v9.303c0 2.155-1.412 3.669-3.412 3.669s-3.411-1.411-3.411-3.67v-9.302h-3.694v9.56c0 4.41 3.122 6.919 6.953 6.919a7.175 7.175 0 0 0 5.02-1.94v.257c-.299.403-.644.77-1.03 1.093 0 2.801-1.739 4.057-3.637 4.057-1.997 0-3.154-1.03-3.475-2.511h-3.637c0 2.554 2.477 6.029 6.886 6.029h-.003zm-17.96-7.37h3.7v-9.67a3.406 3.406 0 0 1 3.412-3.38c.59-.04 1.18.083 1.707.353v-3.59a7.43 7.43 0 0 0-1.707-.194 6.776 6.776 0 0 0-4.858 1.965v-.258c.241-.39.558-.73.931-.998v-.321H53.27l-.01 16.094zm-11.17 0h3.701v-9.67a3.406 3.406 0 0 1 3.412-3.38c.59-.04 1.18.083 1.707.353v-3.59a7.437 7.437 0 0 0-1.707-.194 6.766 6.766 0 0 0-4.858 1.965v-.258c.241-.39.558-.73.931-.998v-.321h-3.175l-.01 16.094zm-9.465.385a7.17 7.17 0 0 0 4.862-2.092v.257c-.25.431-.565.823-.932 1.16v.29h3.175V41.953h-3.7v9.303c0 2.155-1.411 3.669-3.415 3.669-1.93 0-3.443-1.45-3.443-3.67v-9.302h-3.687v9.56c0 4.184 2.784 6.919 7.144 6.919h-.004zm-16.125 0a8.199 8.199 0 0 0 7.5-4.7l-3.285-1.703c-.772 1.735-2.187 2.864-4.233 2.864-2.67 0-4.586-2.06-4.586-4.893 0-2.833 1.901-4.893 4.586-4.893 2.06 0 3.475 1.125 4.233 2.864L24 46.264a8.21 8.21 0 0 0-7.5-4.7 8.437 8.437 0 0 0-7.449 12.701 8.437 8.437 0 0 0 7.449 4.167z"/></g></svg>