<svg xmlns="http://www.w3.org/2000/svg" width="279.501" height="279.48" viewBox="158.5 281.5 279.501 279.48"><path fill="#F60" d="M158.5 281.5H438v279.48H158.5V281.5z"/><path fill="#FFF" d="M410.17 463.23c1.022-27.778-13.41-43.238-39.53-43.238-24.207 0-38.272 17.577-38.272 43.776 0 27.63 14.065 43.966 38.274 43.966h40.925v-15.957h-12.043c5.943-5.856 10.18-16.01 10.65-28.548h-.003zm-49.334.538c0-14.655 3.108-21.692 9.806-21.692 6.695 0 9.814 7.037 9.814 21.692s-3.12 21.685-9.813 21.685c-6.696 0-9.805-7.03-9.805-21.685h-.002zm-118.89-.732c9.656-5.06 12.385-11.14 12.263-20.678-.155-12.268-8.91-21.115-26.77-21.115H186.93v86.576h41.24c15.007 0 28.127-8.226 28.127-24.274 0-10.638-5.154-17.604-14.353-20.51zm-27.18-22.18h3.584c4.97 0 7.626 2.234 7.626 6.728 0 4.486-2.658 7.08-7.626 7.08h-3.582v-13.808zm4.75 47.336h-4.75v-15.426h4.75c5.034 0 8.064 2.498 8.064 7.53 0 5.034-3.03 7.896-8.062 7.896zM330.14 507.9c-.76-5.16-3.39-11.125-7.524-17.626a144.98 144.98 0 0 0 5.064-5.367l-10.572-12.248c-1.54 1.365-3.057 2.77-4.57 4.16-2.17-2.58-4.52-5.2-7.03-7.855 7.325-4.956 12.28-11.337 12.28-19.47 0-9-7.973-18.09-22.558-18.09-15.272 0-23.99 8.808-23.99 18.986 0 5.768 3.505 11.43 7.183 15.897-7.19 4.948-13.43 11.746-13.955 20.18-.938 14.984 10.58 22.996 24.677 22.394 5.63-.228 11.786-1.99 18.874-6.49 1.136 2.087 1.925 3.987 2.214 5.528h19.906v.002zm-35.09-62.705c2.69 0 4.52 2.607 4.52 5.2 0 1.79-1.117 4.347-5.24 7.125-2.502-2.766-3.99-5.038-3.99-7.305-.002-2.393 1.885-5.02 4.71-5.02zm-8 45.028c-2.31-1.9-4.018-7.717 2.48-12.03 3.093 3.427 6.09 6.94 8.986 10.533-4.475 2.94-8.397 4.04-11.465 1.497z"/></svg>