<svg xmlns="http://www.w3.org/2000/svg" color="#e9aa00" viewBox="0 0 32 9.71"><path fill="none" d="M21.2 6.47c-.21.3-1.29.3-1.29.3-1.07.07-2.67.03-2.64.97.02 1 1.33.89 1.94.86a2.2 2.2 0 0 0 1.77-.81c.43-.52.24-1.28.24-1.32 0-.03-.02 0-.02 0M0 2.95"/><path fill="currentcolor" d="M9.89 2.9c-1.05.29-1.46.7-1.62.94v-.9H2.84c-.16-1.75 1.64-1.7 1.64-1.7C6.23 1.17 6.3 2.31 6.3 2.31h1.97C8.27.27 5.45.03 5.45.03 2.68-.19 1.73.75 1.73.75.86 1.5.88 2.68.9 2.95H0l.02 1.34H.9v5.29h1.96v-5.3l3.44.01v5.29h1.96V5.86c.1-.63.52-1.5 2.05-1.63 0 0 2.22-.36 2.51 1.64v3.7h1.97V5.12c-.45-3.18-4.91-2.2-4.91-2.2m13.3 2.69c.18-2.3-2.25-2.63-2.25-2.63-2.17-.36-3.4 0-3.43 0-2.12.5-2.12 2.19-2.12 2.19h2s.02-1.32 2.17-1.15c0 0 1.55.07 1.64.77 0 0 .5.84-1.64.96-2.16.13-4.72.1-4.45 2.1 0 0-.05 1.94 3.48 1.88 0 0 1.88.06 2.65-.9v.02l.06.75h1.95l-.05-4m-2.21 2.2c-.5.6-1.08.78-1.77.81-.61.03-1.92.14-1.94-.86-.03-.94 1.57-.9 2.64-.97 0 0 1.08 0 1.3-.3 0 0 0-.03 0 0 .01.04.2.8-.23 1.32m9.01-.44c-.3.63-.8 1-2.07 1-.54.01-2.28-.18-2.37-2.05v-.07c.06-1.87 1.84-2.06 2.42-2.08 1.07-.02 1.68.32 2 .95l2-.02a2 2 0 0 0-.17-.63c-.4-.75-1.42-1.68-3.95-1.6a7 7 0 0 0-2.07.33c-.87.34-2.37 1.26-2.27 3.2.1 2.05 1.5 2.65 2.31 2.98.54.23 1.23.3 2.09.3 2.55.06 3.53-.93 3.92-1.69.12-.27.16-.4.17-.64z"/></svg>