<svg id="Layer_1" data-name="Layer 1" xmlns="http://www.w3.org/2000/svg" viewBox="0 0 189.8 34.5"><defs><style>.cls-1{fill:#fff;}.cls-2{fill:#fcca40;}</style></defs><title>microless-svg-logo-next</title><path class="cls-1" d="M0.7,14.85H9.5l8.2,22.5h0.1L26,14.85h8.8v31.6H29.2V21.15H29.1l-9.6,25.4H15.6L6.1,21.15h0v25.4H0.7V14.85Z" transform="translate(-0.7 -12.75)"/><path class="cls-1" d="M40.8,17.75a3,3,0,0,1,1-2.3,3.49,3.49,0,0,1,2.4-1,3.66,3.66,0,0,1,2.5.9,2.9,2.9,0,0,1,1,2.3,2.9,2.9,0,0,1-1,2.3,3.66,3.66,0,0,1-2.5.9,3,3,0,0,1-2.4-1A2.52,2.52,0,0,1,40.8,17.75Zm0.8,6.6H47v22.1H41.6V24.35Z" transform="translate(-0.7 -12.75)"/><path class="cls-1" d="M68.1,31a4.24,4.24,0,0,0-1.9-1.5,5.73,5.73,0,0,0-2.5-.6,5.54,5.54,0,0,0-2.6.6,5.81,5.81,0,0,0-1.9,1.6,6.5,6.5,0,0,0-1.1,2.2,10.05,10.05,0,0,0-.4,2.5,7.27,7.27,0,0,0,.4,2.5,7.56,7.56,0,0,0,1.1,2.2,4.94,4.94,0,0,0,1.9,1.6,5.67,5.67,0,0,0,2.7.6,7.42,7.42,0,0,0,2.5-.5,4.83,4.83,0,0,0,2-1.4l3.4,3.4a8,8,0,0,1-3.4,2.2,13.06,13.06,0,0,1-9,0,11.36,11.36,0,0,1-3.7-2.2,10.14,10.14,0,0,1-2.5-3.6,12.09,12.09,0,0,1-.9-4.8,11.93,11.93,0,0,1,.9-4.7,10.14,10.14,0,0,1,2.5-3.6,12.29,12.29,0,0,1,3.6-2.3,13.17,13.17,0,0,1,4.4-.8,12.16,12.16,0,0,1,4.6.9,8.29,8.29,0,0,1,3.5,2.5Z" transform="translate(-0.7 -12.75)"/><path class="cls-1" d="M75.3,25h5.1v3.6h0.1a6.76,6.76,0,0,1,2.5-3,6.15,6.15,0,0,1,3.8-1.2h0.7c0.2,0,.4.1,0.6,0.1v4.9a6.37,6.37,0,0,1-.9-0.2H86.5a5,5,0,0,0-2.9.7,5.23,5.23,0,0,0-1.7,1.6,5.17,5.17,0,0,0-.8,1.9,11.55,11.55,0,0,0-.2,1.6v11.5H75.5V25H75.3Z" transform="translate(-0.7 -12.75)"/><path class="cls-1" d="M118.1,12.75h5.4v33.8h-5.4V12.75Z" transform="translate(-0.7 -12.75)"/><path class="cls-1" d="M150.5,36v1.4H134.2a6.46,6.46,0,0,0,.6,2.1,5.52,5.52,0,0,0,1.4,1.7,7.24,7.24,0,0,0,1.9,1.1,5.7,5.7,0,0,0,2.2.4,7.12,7.12,0,0,0,3.4-.7,7.4,7.4,0,0,0,2.3-2l3.6,2.9c-2.1,2.9-5.2,4.3-9.2,4.3a13.44,13.44,0,0,1-4.6-.8,10.12,10.12,0,0,1-6-5.7,12.72,12.72,0,0,1,0-9.4,11.35,11.35,0,0,1,2.4-3.6,9.67,9.67,0,0,1,3.6-2.3,11.24,11.24,0,0,1,4.5-.8,10.7,10.7,0,0,1,4.1.7,8.34,8.34,0,0,1,3.3,2.2,12.84,12.84,0,0,1,2.2,3.6A21.83,21.83,0,0,1,150.5,36Zm-5.4-2.4a6.93,6.93,0,0,0-.3-2,5.56,5.56,0,0,0-.9-1.7,3.09,3.09,0,0,0-1.6-1.1,5.27,5.27,0,0,0-2.3-.4,5.92,5.92,0,0,0-4.1,1.5,5.8,5.8,0,0,0-1.9,3.7h11.1Z" transform="translate(-0.7 -12.75)"/><path class="cls-1" d="M167.4,30.75a5.45,5.45,0,0,0-2-1.6,5,5,0,0,0-2.7-.7,6,6,0,0,0-2.4.5,2,2,0,0,0-1.1,1.8,1.92,1.92,0,0,0,1.2,1.8,19.63,19.63,0,0,0,3.5,1,21.72,21.72,0,0,1,2.4.7,7.76,7.76,0,0,1,2.2,1.2,5.48,5.48,0,0,1,1.6,1.8,5.4,5.4,0,0,1,.6,2.7,6.71,6.71,0,0,1-.7,3.3,6,6,0,0,1-2,2.2,6.86,6.86,0,0,1-2.9,1.2,12.67,12.67,0,0,1-3.4.4,13.72,13.72,0,0,1-4.9-.9,9.91,9.91,0,0,1-3.9-2.6l3.5-3.3a7.1,7.1,0,0,0,2.3,1.9,6.9,6.9,0,0,0,3.2.8,4.87,4.87,0,0,0,1.2-.1,3.58,3.58,0,0,0,1.1-.4,3,3,0,0,0,.8-0.8,2.13,2.13,0,0,0,.3-1.2,2,2,0,0,0-1.2-1.9,17.72,17.72,0,0,0-3.7-1.2,15.46,15.46,0,0,1-2.3-.7,9.46,9.46,0,0,1-2-1.1,4.57,4.57,0,0,1-1.4-1.7,4.87,4.87,0,0,1-.5-2.5,6.17,6.17,0,0,1,.7-3.1,5.54,5.54,0,0,1,1.9-2.1,6.6,6.6,0,0,1,2.7-1.2,11,11,0,0,1,3.1-.4,13.75,13.75,0,0,1,4.5.8,7.52,7.52,0,0,1,3.5,2.5l-3.2,2.9h0Z" transform="translate(-0.7 -12.75)"/><path class="cls-1" d="M187.2,30.75a5.45,5.45,0,0,0-2-1.6,5,5,0,0,0-2.7-.7,6,6,0,0,0-2.4.5,2,2,0,0,0-1.1,1.8,1.92,1.92,0,0,0,1.2,1.8,19.63,19.63,0,0,0,3.5,1,21.72,21.72,0,0,1,2.4.7,7.76,7.76,0,0,1,2.2,1.2,5.48,5.48,0,0,1,1.6,1.8,5.4,5.4,0,0,1,.6,2.7,6.71,6.71,0,0,1-.7,3.3,6,6,0,0,1-2,2.2,6.86,6.86,0,0,1-2.9,1.2,12.67,12.67,0,0,1-3.4.4,13.72,13.72,0,0,1-4.9-.9,9.91,9.91,0,0,1-3.9-2.6l3.5-3.3a7.1,7.1,0,0,0,2.3,1.9,6.9,6.9,0,0,0,3.2.8,4.87,4.87,0,0,0,1.2-.1,3.58,3.58,0,0,0,1.1-.4,3,3,0,0,0,.8-0.8,2.13,2.13,0,0,0,.3-1.2,2,2,0,0,0-1.2-1.9,17.72,17.72,0,0,0-3.7-1.2,15.46,15.46,0,0,1-2.3-.7,9.46,9.46,0,0,1-2-1.1,4.57,4.57,0,0,1-1.4-1.7,4.87,4.87,0,0,1-.5-2.5,6.17,6.17,0,0,1,.7-3.1,5.54,5.54,0,0,1,1.9-2.1,6.6,6.6,0,0,1,2.7-1.2,11,11,0,0,1,3.1-.4,13.75,13.75,0,0,1,4.5.8,7.52,7.52,0,0,1,3.5,2.5l-3.2,2.9h0Z" transform="translate(-0.7 -12.75)"/><path class="cls-1" d="M113.8,29.75a11.87,11.87,0,0,0-2.7-3.8l-1.5-1.2-3.3,4,0.9,0.9a6.77,6.77,0,0,1,1.2,2.4,9.31,9.31,0,0,1,0,5.4,9,9,0,0,1-1.2,2.4,5.1,5.1,0,0,1-2.1,1.7,6.78,6.78,0,0,1-6,0,8.7,8.7,0,0,1-2.1-1.7,6.77,6.77,0,0,1-1.2-2.4,9.31,9.31,0,0,1,0-5.4,9,9,0,0,1,1.2-2.4,5.73,5.73,0,0,1,1.1-1.1l-3.3-4a10.92,10.92,0,0,0-1.7,1.3,13.09,13.09,0,0,0-2.7,3.8,11.76,11.76,0,0,0-1,5,11.76,11.76,0,0,0,1,5,13.58,13.58,0,0,0,2.7,3.9,11.78,11.78,0,0,0,4,2.5,13.79,13.79,0,0,0,9.8,0,13.55,13.55,0,0,0,4-2.5,13.58,13.58,0,0,0,2.7-3.9,11.76,11.76,0,0,0,1-5A9.1,9.1,0,0,0,113.8,29.75Z" transform="translate(-0.7 -12.75)"/><rect class="cls-2" x="98.8" y="8.2" width="5.7" height="9.7"/></svg>