<?xml version="1.0" encoding="UTF-8" standalone="no"?>
<!-- Generator: Adobe Illustrator 23.0.1, SVG Export Plug-In . SVG Version: 6.00 Build 0)  -->
<svg version="1.1" id="Layer_1" x="0px" y="0px" viewBox="0 0 800.40002 371.5" xml:space="preserve" sodipodi:docname="Noon-01.svg" width="800.40002" height="371.5" inkscape:version="1.3.2 (091e20ef0f, 2023-11-25)" xmlns:inkscape="http://www.inkscape.org/namespaces/inkscape" xmlns:sodipodi="http://sodipodi.sourceforge.net/DTD/sodipodi-0.dtd" xmlns="http://www.w3.org/2000/svg" xmlns:svg="http://www.w3.org/2000/svg"><defs id="defs9"/><sodipodi:namedview id="namedview9" pagecolor="#ffffff" bordercolor="#000000" borderopacity="0.25" inkscape:showpageshadow="2" inkscape:pageopacity="0.0" inkscape:pagecheckerboard="0" inkscape:deskcolor="#d1d1d1" inkscape:zoom="0.34" inkscape:cx="400" inkscape:cy="185.29412" inkscape:window-width="1366" inkscape:window-height="699" inkscape:window-x="0" inkscape:window-y="0" inkscape:window-maximized="1" inkscape:current-layer="Layer_1"/>
<style type="text/css" id="style1">
	.st0{fill:#FCE819;}
	.st1{fill:#4A4A4A;}
</style>
<g id="g9" transform="translate(-99.800003,-314.20001)">
	<rect x="99.800003" y="314.20001" class="st0" width="800.40002" height="371.5" id="rect1"/>
	<g id="g8">
		<path class="st1" d="m 842.3,399.3 v 22.5 c 0,11.9 -9.7,21.7 -21.6,21.7 H 710.4 l -0.8,-22.6 c -0.7,-20.3 -17.1,-36.1 -37.4,-36.1 -20.6,0 -37.4,16.8 -37.4,37.4 v 0.5 c 0,20.6 16.8,37.4 37.4,37.4 h 18.1 3.6 c -1.7,16.5 -15.6,29.4 -32.6,29.4 v 16.6 c 26.1,0 47.5,-20.3 49.2,-46 h 0.4 109.7 c 21.1,0 38.2,-17.1 38.2,-38.2 v -22.5 h -16.5 z m -151.9,44.1 h -18.1 c -11.5,0 -20.8,-9.3 -20.8,-20.8 v -0.5 c 0,-11.5 9.3,-20.8 20.8,-20.8 11.3,0 20.4,8.8 20.8,20.1 l 0.8,22 z" id="path1"/>
		<path class="st1" d="m 603.3,399.3 h -16.6 v 35.6 c 0,17.4 -14.1,31.5 -31.5,31.5 -17.4,0 -31.5,-14.1 -31.5,-31.5 v -35.6 h -16.6 v 35.6 c 0,26.5 21.6,48.1 48.1,48.1 26.5,0 48.1,-21.6 48.1,-48.1 z" id="path2"/>
		
			<circle transform="matrix(0.9732,-0.2298,0.2298,0.9732,-70.6633,137.5185)" class="st1" cx="555.20001" cy="372.20001" id="ellipse2" r="8.8999996"/>
		<circle class="st1" cx="821.59998" cy="372.20001" r="8.8999996" id="circle2"/>
		<path class="st1" d="M 377.6,385.2 353,427.4 c 20.8,18.3 34.5,43.3 34.5,73.2 0,55.3 -44.8,100.1 -100.1,100.1 -55.3,0 -101.8,-44.8 -101.8,-100.1 0,-7.5 0.6,-13.9 2.2,-20.9 L 141.1,507 c 0,74.5 62.3,140.1 146.3,140.1 80.9,0 146.5,-65.6 146.5,-146.5 0,-46.9 -22,-88.6 -56.3,-115.4 z" id="path3"/>
		<path class="st1" d="m 306.6,402.9 24.8,-42.6 c 0,0 -21.4,-12.3 -62.3,-5.3 l -31.2,54.5 c -0.1,0.1 26.1,-17.2 68.7,-6.6 z" id="path4"/>
		<path class="st1" d="m 634.5,534.4 c -18.1,0 -32.8,15.3 -32.8,34.2 0,18.9 14.7,34.2 32.8,34.2 18.1,0 32.8,-15.3 32.8,-34.2 0,-18.9 -14.7,-34.2 -32.8,-34.2 z m 0,52 c -9,0 -16.3,-8 -16.3,-17.9 0,-9.9 7.3,-17.9 16.3,-17.9 9,0 16.3,8 16.3,17.9 0,9.9 -7.3,17.9 -16.3,17.9 z" id="path5"/>
		<path class="st1" d="m 731.9,534.4 c -18.1,0 -32.8,15.3 -32.8,34.2 0,18.9 14.7,34.2 32.8,34.2 18.1,0 32.8,-15.3 32.8,-34.2 0,-18.9 -14.7,-34.2 -32.8,-34.2 z m 0,52 c -9,0 -16.3,-8 -16.3,-17.9 0,-9.9 7.3,-17.9 16.3,-17.9 9,0 16.3,8 16.3,17.9 0,9.9 -7.3,17.9 -16.3,17.9 z" id="path6"/>
		<path class="st1" d="m 833.1,534.4 c -12.4,0 -19.4,6.7 -19.4,6.7 l -1.6,-5.1 h -12.8 v 65.3 h 16.4 c 0,0 0,-22.7 0,-36.6 0,-13.9 14.9,-14 14.9,-14 11.3,0 11.8,12.1 11.8,12.1 v 38.6 h 16.1 v -41.8 c -1.9,-26.3 -25.4,-25.2 -25.4,-25.2 z" id="path7"/>
		<path class="st1" d="m 540.9,534.4 c -12.4,0 -19.4,6.7 -19.4,6.7 l -1.6,-5.1 h -12.8 v 65.3 h 16.4 c 0,0 0,-22.7 0,-36.6 0,-13.9 14.9,-14 14.9,-14 11.3,0 11.8,12.1 11.8,12.1 v 38.6 h 16.1 v -41.8 c -2,-26.3 -25.4,-25.2 -25.4,-25.2 z" id="path8"/>
	</g>
</g>
</svg>