<svg height="243.305953" viewBox="0 0 204.00401 120.69402" width="411.00515" xmlns="http://www.w3.org/2000/svg"><g stroke-width=".264583" transform="translate(251.60085 56.12725)"><path d="m-55.033333 64.1601c-.928053-.3261-2.131245-1.34259-5.455867-4.60932-2.345875-2.30503-4.337897-4.19096-4.426691-4.19096-.08882 0-1.622266.76815-3.407674 1.70701-5.626735 2.95878-10.501683 4.17088-16.739976 4.16216-10.457209-.0146-20.241309-4.96745-26.661159-13.49623-4.64273-6.16782-6.81072-12.55834-6.80662-20.06346.003-4.3235.26104-6.18124 1.35744-9.74802 2.68068-8.7207295 8.91673-16.1676495 17.1399-20.4679795 4.92059-2.57324 9.71317-3.74212 15.335829-3.74033 9.431628.003 17.388575 3.28386 24.000909 9.89618 6.220619 6.22062 9.355852 13.4047895 9.805511 22.4685795.348933 7.03341-1.129453 12.47084-5.491057 20.19603l-.621294 1.1004 4.139221 3.9979c5.274019 5.09394 5.896477 6.2935 4.831741 9.31132-.551497 1.56308-1.78943 2.77177-3.49078 3.40833-1.653778.61876-1.927913.6241-3.509433.0684z"/><path d="m-78.467002 49.29701c7.61492-2.09202 13.676338-8.24748 15.799117-16.04418.84791-3.11428.853784-8.94051.01191-11.86955-2.287429-7.95906-8.369088-13.9129595-16.429804-16.0846695-2.917455-.78602-7.831164-.7791-10.829401.0153-13.18522 3.4933-20.87208 17.3156495-16.41972 29.5255395 2.07904 5.70148 6.90123 10.84671 12.53447 13.37418 4.6604 2.09097 10.232741 2.48471 15.333352 1.08343z" fill="#f7f7f7"/><path d="m-227.14479 61.41646c-4.33903-.62547-9.52981-2.43593-12.45873-4.34542-2.39869-1.5638-5.61482-4.96475-6.97346-7.37422-2.17561-3.85831-4.12453-10.7506-4.79541-16.95888-.78834-7.2952.50313-16.45703 3.26342-23.1510395 3.09414-7.50363 8.73029-12.38512 16.73085-14.49065 3.43276-.90341 6.09671-1.21255 10.45104-1.2128 9.26485-.00053 16.13515 2.59556 21.26792 8.03657 2.86656 3.03871 3.62055 5.24689 2.57642 7.54554-1.30334 2.8692895-5.10748 3.8928495-7.53194 2.0265695-.51058-.39303-1.9695-1.6427395-3.24203-2.7771195-4.10094-3.65574-7.32114-4.8061-13.46724-4.81093-3.42191-.003-4.24218.082-5.95313.61494-4.62427 1.44028-7.86471 4.10143-9.75626 8.0121095-2.43489 5.034-3.54942 14.53589-2.54086 21.66202 1.41426 9.99262 4.91479 14.88997 12.05165 16.86062 2.45184.677 11.04289.66198 13.34234-.0233 2.17568-.64843 4.68025-2.05413 6.83203-3.8345 3.32764-2.75327 4.00904-3.21152 5.38964-3.62458 1.74807-.523 3.08098-.20726 4.22831 1.00159 1.16931 1.23201 1.67398 2.37414 1.67398 3.78844 0 1.72664-.63376 2.87767-2.77288 5.03601-4.27143 4.30983-9.8737 6.87658-17.51842 8.02628-2.2017.33111-8.47927.32692-10.79724-.007z"/><path d="m-183.082 60.08732c-1.35798-.40602-2.33073-1.19752-2.99222-2.43468l-.58932-1.1022-.0731-28.16871c-.0516-19.8757195.0133-28.58510952.22051-29.5831095.52377-2.52299 2.69844-4.29297 5.27454-4.29297 2.36537 0 4.14914 1.07301 5.05822 3.04271.46414 1.00567.48874 2.33874998.49426 26.7890595l.006 25.73073h12.25118 12.25117l1.36445.67993c1.14065.56842 1.47997.91607 2.06883 2.11967 1.32797 2.71426.49828 5.41344-2.08794 6.7926-1.10847.59112-1.11872.59151-16.71957.64621-10.15776.0356-15.9305-.041-16.52679-.21924z"/><path d="m-135.23249 60.02192c-1.51367-.54093-2.52503-1.39784-3.13367-2.65513-.55796-1.15259-.56422-1.36213-.61802-20.7018l-.0544-19.53742.66146-1.32116c.94466-1.88682 2.4318-2.85662 4.59131-2.99413 1.31622-.0838 1.89818.0101 2.74709.44315 1.46988.74988 2.63384 2.23941 2.96819 3.7984.17752.82775.27674 7.86158.27674 19.61791 0 16.06891-.0525 18.50459-.4256 19.76458-.89912 3.03597-4.04723 4.6455-7.01314 3.5856z"/><path d="m-132.42396 5.9915905c-1.19659-.64577-9.1282-8.58326-9.55208-9.55917-.54613-1.25739-.46994-3.60358.15693-4.83236 1.29259-2.5336705 4.79873-3.6209705 7.34919-2.2790705.39768.20923 2.64678 2.3245905 4.99802 4.7007905 3.63566 3.67427 4.32195 4.49677 4.58908 5.49987998.59891 2.24900002-.29686 4.70276002-2.19765 6.02001002-1.31215.90932-4.06303 1.14094-5.34349.44992z" fill="#ff1744"/><path d="m-178.32916-35.52452v-11.24479h-4.49792-4.49792v-4.63021-4.6302h14.94896 14.94896v4.6302 4.63021h-4.50351-4.50351l.0717 11.24488.0717 11.24487-6.01927-.00008-6.01927-.00008z"/></g><g transform="matrix(.30894547 0 0 .30218004 -4.281367 -86.547037)"><path d="m44.737 317.654h-30.121v-30.922h101.614v30.922h-29.151v74.315h-42.342z"/><path d="m189.356 391.969-21.664-62.717-21.394 62.717h-40.663l39.881-105.237h44.161l40.842 105.237z"/><path d="m250.933 317.654h-30.128v-30.922h101.61v30.922h-29.142v74.315h-42.34z" fill="#486aae"/><path d="m395.552 391.969-21.657-62.717-21.402 62.717h-40.663l39.894-105.237h44.148l40.828 105.237z"/></g><path d="m87.079 317.654v74.315h-42.342v-74.315h-30.121v-30.922h101.614v30.922z" transform="matrix(.30894548 0 0 .30218003 59.421334 -86.547034)"/></svg>